<svg xmlns="http://www.w3.org/2000/svg" width="280" height="96" viewBox="0 0 280 96" role="img" aria-label="kup.solutions logo">
  <defs>
    <linearGradient id="trophy-fill" x1="0%" y1="0%" x2="0%" y2="100%">
      <stop offset="0%" stop-color="#FFD100"/>
      <stop offset="100%" stop-color="#C99700"/>
    </linearGradient>
  </defs>
  <g fill="none" fill-rule="evenodd">
    <!-- Trophy -->
    <g transform="translate(8,8)">
      <rect x="24" y="4" width="76" height="16" rx="4" fill="#0B2A3C"/>
      <path d="M28 8c0 10 6 18 18 22v6h32v-6c12-4 18-12 18-22" stroke="#0B2A3C" stroke-width="6" fill="url(#trophy-fill)"/>
      <path d="M66 52h-8c-6 0-10 4-10 10v2h38v-2c0-6-4-10-10-10h-10z" fill="#0B2A3C"/>
      <rect x="40" y="70" width="44" height="6" rx="2" fill="#0B2A3C"/>
      <!-- Handles -->
      <path d="M24 12c-10 0-16 6-16 16 0 10 8 16 18 16" stroke="#0B2A3C" stroke-width="6" fill="none"/>
      <path d="M124 12c10 0 16 6 16 16 0 10-8 16-18 16" stroke="#0B2A3C" stroke-width="6" fill="none"/>
    </g>
    <!-- Wordmark -->
    <g transform="translate(130,24)" fill="#0B2A3C">
      <text x="0" y="28" font-family="Inter, system-ui, -apple-system, Segoe UI, Roboto, Helvetica, Arial, sans-serif" font-size="36" font-weight="700" letter-spacing="0">kup.</text>
      <text x="0" y="66" font-family="Inter, system-ui, -apple-system, Segoe UI, Roboto, Helvetica, Arial, sans-serif" font-size="32" font-weight="700" letter-spacing="0">solutions</text>
    </g>
  </g>
</svg>


